<?xml version="1.0" encoding="UTF-8" standalone="no"?>
<!DOCTYPE svg PUBLIC "-//W3C//DTD SVG 1.1//EN"
 "http://www.w3.org/Graphics/SVG/1.1/DTD/svg11.dtd">
<!-- Generated by graphviz version 2.47.0 (20210316.0004)
 -->
<!-- Title: dependencies Pages: 1 -->
<svg width="4632pt" height="284pt"
 viewBox="0.00 0.00 4632.00 284.00" xmlns="http://www.w3.org/2000/svg" xmlns:xlink="http://www.w3.org/1999/xlink">
<g id="graph0" class="graph" transform="scale(1 1) rotate(0) translate(4 280)">
<title>dependencies</title>
<polygon fill="white" stroke="transparent" points="-4,4 -4,-280 4628,-280 4628,4 -4,4"/>
<text text-anchor="start" x="2291.01" y="-42.4" font-family="sans-serif" font-weight="bold" font-size="14.00">Legend</text>
<polygon fill="#ffffb3" stroke="transparent" points="2078,-10 2078,-30 2098,-30 2098,-10 2078,-10"/>
<text text-anchor="start" x="2101.63" y="-15.4" font-family="sans-serif" font-size="14.00"> &#160;Declarations</text>
<polygon fill="#8dd3c7" stroke="transparent" points="2191,-10 2191,-30 2211,-30 2211,-10 2191,-10"/>
<text text-anchor="start" x="2214.73" y="-15.4" font-family="sans-serif" font-size="14.00"> &#160;Module</text>
<polygon fill="#80b1d3" stroke="transparent" points="2277,-10 2277,-30 2297,-30 2297,-10 2277,-10"/>
<text text-anchor="start" x="2300.78" y="-15.4" font-family="sans-serif" font-size="14.00"> &#160;Bootstrap</text>
<polygon fill="#fdb462" stroke="transparent" points="2374,-10 2374,-30 2394,-30 2394,-10 2374,-10"/>
<text text-anchor="start" x="2397.67" y="-15.4" font-family="sans-serif" font-size="14.00"> &#160;Providers</text>
<polygon fill="#fb8072" stroke="transparent" points="2470,-10 2470,-30 2490,-30 2490,-10 2470,-10"/>
<text text-anchor="start" x="2493.73" y="-15.4" font-family="sans-serif" font-size="14.00"> &#160;Exports</text>
<g id="clust1" class="cluster">
<title>cluster_AppModule</title>
<polygon fill="none" stroke="black" stroke-dasharray="1,5" points="8,-70 8,-268 4616,-268 4616,-70 8,-70"/>
</g>
<g id="clust32" class="cluster">
<title>cluster_AppModule_bootstrap</title>
<polygon fill="none" stroke="black" points="2327,-208 2327,-260 2451,-260 2451,-208 2327,-208"/>
</g>
<g id="clust30" class="cluster">
<title>cluster_AppModule_imports</title>
<polygon fill="none" stroke="black" points="4464,-78 4464,-130 4608,-130 4608,-78 4464,-78"/>
</g>
<g id="clust2" class="cluster">
<title>cluster_AppModule_declarations</title>
<polygon fill="none" stroke="black" points="16,-78 16,-130 4456,-130 4456,-78 16,-78"/>
</g>
<!-- AcessibilidadeComponent -->
<g id="node1" class="node">
<title>AcessibilidadeComponent</title>
<polygon fill="#ffffb3" stroke="black" points="4447.75,-122 4284.25,-122 4284.25,-86 4447.75,-86 4447.75,-122"/>
<text text-anchor="middle" x="4366" y="-99.8" font-family="Times,serif" font-size="14.00">AcessibilidadeComponent</text>
</g>
<!-- AppModule -->
<g id="node28" class="node">
<title>AppModule</title>
<polygon fill="#8dd3c7" stroke="black" points="2430.66,-187 2427.66,-191 2406.66,-191 2403.66,-187 2347.34,-187 2347.34,-151 2430.66,-151 2430.66,-187"/>
<text text-anchor="middle" x="2389" y="-164.8" font-family="Times,serif" font-size="14.00">AppModule</text>
</g>
<!-- AcessibilidadeComponent&#45;&gt;AppModule -->
<g id="edge1" class="edge">
<title>AcessibilidadeComponent&#45;&gt;AppModule</title>
<path fill="none" stroke="black" d="M4366,-122.09C4366,-145.13 4366,-182 4366,-182 4366,-182 2440.75,-182 2440.75,-182"/>
<polygon fill="black" stroke="black" points="2440.75,-178.5 2430.75,-182 2440.75,-185.5 2440.75,-178.5"/>
</g>
<!-- AlertasComponent -->
<g id="node2" class="node">
<title>AlertasComponent</title>
<polygon fill="#ffffb3" stroke="black" points="4265.75,-122 4144.25,-122 4144.25,-86 4265.75,-86 4265.75,-122"/>
<text text-anchor="middle" x="4205" y="-99.8" font-family="Times,serif" font-size="14.00">AlertasComponent</text>
</g>
<!-- AlertasComponent&#45;&gt;AppModule -->
<g id="edge2" class="edge">
<title>AlertasComponent&#45;&gt;AppModule</title>
<path fill="none" stroke="black" d="M4205,-122.01C4205,-144.49 4205,-180 4205,-180 4205,-180 2440.78,-180 2440.78,-180"/>
<polygon fill="black" stroke="black" points="2440.78,-176.5 2430.78,-180 2440.78,-183.5 2440.78,-176.5"/>
</g>
<!-- AlterarSenhaComponent -->
<g id="node3" class="node">
<title>AlterarSenhaComponent</title>
<polygon fill="#ffffb3" stroke="black" points="4126.68,-122 3971.32,-122 3971.32,-86 4126.68,-86 4126.68,-122"/>
<text text-anchor="middle" x="4049" y="-99.8" font-family="Times,serif" font-size="14.00">AlterarSenhaComponent</text>
</g>
<!-- AlterarSenhaComponent&#45;&gt;AppModule -->
<g id="edge3" class="edge">
<title>AlterarSenhaComponent&#45;&gt;AppModule</title>
<path fill="none" stroke="black" d="M4049,-122.04C4049,-143.66 4049,-177 4049,-177 4049,-177 2440.86,-177 2440.86,-177"/>
<polygon fill="black" stroke="black" points="2440.86,-173.5 2430.86,-177 2440.86,-180.5 2440.86,-173.5"/>
</g>
<!-- AppComponent -->
<g id="node4" class="node">
<title>AppComponent</title>
<polygon fill="#ffffb3" stroke="black" points="3953.94,-122 3848.06,-122 3848.06,-86 3953.94,-86 3953.94,-122"/>
<text text-anchor="middle" x="3901" y="-99.8" font-family="Times,serif" font-size="14.00">AppComponent</text>
</g>
<!-- AppComponent&#45;&gt;AppModule -->
<g id="edge4" class="edge">
<title>AppComponent&#45;&gt;AppModule</title>
<path fill="none" stroke="black" d="M3901,-122.28C3901,-143.32 3901,-175 3901,-175 3901,-175 2441.02,-175 2441.02,-175"/>
<polygon fill="black" stroke="black" points="2441.02,-171.5 2431.02,-175 2441.02,-178.5 2441.02,-171.5"/>
</g>
<!-- CadastrarCategoriaComponent -->
<g id="node5" class="node">
<title>CadastrarCategoriaComponent</title>
<polygon fill="#ffffb3" stroke="black" points="3830.89,-122 3641.11,-122 3641.11,-86 3830.89,-86 3830.89,-122"/>
<text text-anchor="middle" x="3736" y="-99.8" font-family="Times,serif" font-size="14.00">CadastrarCategoriaComponent</text>
</g>
<!-- CadastrarCategoriaComponent&#45;&gt;AppModule -->
<g id="edge5" class="edge">
<title>CadastrarCategoriaComponent&#45;&gt;AppModule</title>
<path fill="none" stroke="black" d="M3736,-122.22C3736,-142.37 3736,-172 3736,-172 3736,-172 2440.79,-172 2440.79,-172"/>
<polygon fill="black" stroke="black" points="2440.79,-168.5 2430.79,-172 2440.79,-175.5 2440.79,-168.5"/>
</g>
<!-- CadastrarComponent -->
<g id="node6" class="node">
<title>CadastrarComponent</title>
<polygon fill="#ffffb3" stroke="black" points="3623.47,-122 3488.53,-122 3488.53,-86 3623.47,-86 3623.47,-122"/>
<text text-anchor="middle" x="3556" y="-99.8" font-family="Times,serif" font-size="14.00">CadastrarComponent</text>
</g>
<!-- CadastrarComponent&#45;&gt;AppModule -->
<g id="edge6" class="edge">
<title>CadastrarComponent&#45;&gt;AppModule</title>
<path fill="none" stroke="black" d="M3556,-122.11C3556,-141.34 3556,-169 3556,-169 3556,-169 2440.88,-169 2440.88,-169"/>
<polygon fill="black" stroke="black" points="2440.88,-165.5 2430.88,-169 2440.88,-172.5 2440.88,-165.5"/>
</g>
<!-- CadastrarProdutosComponent -->
<g id="node7" class="node">
<title>CadastrarProdutosComponent</title>
<polygon fill="#ffffb3" stroke="black" points="3470.25,-122 3285.75,-122 3285.75,-86 3470.25,-86 3470.25,-122"/>
<text text-anchor="middle" x="3378" y="-99.8" font-family="Times,serif" font-size="14.00">CadastrarProdutosComponent</text>
</g>
<!-- CadastrarProdutosComponent&#45;&gt;AppModule -->
<g id="edge7" class="edge">
<title>CadastrarProdutosComponent&#45;&gt;AppModule</title>
<path fill="none" stroke="black" d="M3378,-122.22C3378,-140.83 3378,-167 3378,-167 3378,-167 2440.86,-167 2440.86,-167"/>
<polygon fill="black" stroke="black" points="2440.86,-163.5 2430.86,-167 2440.86,-170.5 2440.86,-163.5"/>
</g>
<!-- CarrinhoComponent -->
<g id="node8" class="node">
<title>CarrinhoComponent</title>
<polygon fill="#ffffb3" stroke="black" points="3267.6,-122 3136.4,-122 3136.4,-86 3267.6,-86 3267.6,-122"/>
<text text-anchor="middle" x="3202" y="-99.8" font-family="Times,serif" font-size="14.00">CarrinhoComponent</text>
</g>
<!-- CarrinhoComponent&#45;&gt;AppModule -->
<g id="edge8" class="edge">
<title>CarrinhoComponent&#45;&gt;AppModule</title>
<path fill="none" stroke="black" d="M3202,-122C3202,-139.68 3202,-164 3202,-164 3202,-164 2440.72,-164 2440.72,-164"/>
<polygon fill="black" stroke="black" points="2440.72,-160.5 2430.72,-164 2440.72,-167.5 2440.72,-160.5"/>
</g>
<!-- ChatbotComponent -->
<g id="node9" class="node">
<title>ChatbotComponent</title>
<polygon fill="#ffffb3" stroke="black" points="3118.67,-122 2993.33,-122 2993.33,-86 3118.67,-86 3118.67,-122"/>
<text text-anchor="middle" x="3056" y="-99.8" font-family="Times,serif" font-size="14.00">ChatbotComponent</text>
</g>
<!-- ChatbotComponent&#45;&gt;AppModule -->
<g id="edge9" class="edge">
<title>ChatbotComponent&#45;&gt;AppModule</title>
<path fill="none" stroke="black" d="M3056,-122.03C3056,-139.06 3056,-162 3056,-162 3056,-162 2440.72,-162 2440.72,-162"/>
<polygon fill="black" stroke="black" points="2440.72,-158.5 2430.72,-162 2440.72,-165.5 2440.72,-158.5"/>
</g>
<!-- ContatoComponent -->
<g id="node10" class="node">
<title>ContatoComponent</title>
<polygon fill="#ffffb3" stroke="black" points="2974.67,-122 2849.33,-122 2849.33,-86 2974.67,-86 2974.67,-122"/>
<text text-anchor="middle" x="2912" y="-99.8" font-family="Times,serif" font-size="14.00">ContatoComponent</text>
</g>
<!-- ContatoComponent&#45;&gt;AppModule -->
<g id="edge10" class="edge">
<title>ContatoComponent&#45;&gt;AppModule</title>
<path fill="none" stroke="black" d="M2912,-122.01C2912,-138.05 2912,-159 2912,-159 2912,-159 2440.92,-159 2440.92,-159"/>
<polygon fill="black" stroke="black" points="2440.92,-155.5 2430.92,-159 2440.92,-162.5 2440.92,-155.5"/>
</g>
<!-- EntrarComponent -->
<g id="node11" class="node">
<title>EntrarComponent</title>
<polygon fill="#ffffb3" stroke="black" points="2831.31,-122 2714.69,-122 2714.69,-86 2831.31,-86 2831.31,-122"/>
<text text-anchor="middle" x="2773" y="-99.8" font-family="Times,serif" font-size="14.00">EntrarComponent</text>
</g>
<!-- EntrarComponent&#45;&gt;AppModule -->
<g id="edge11" class="edge">
<title>EntrarComponent&#45;&gt;AppModule</title>
<path fill="none" stroke="black" d="M2773,-122.24C2773,-137.57 2773,-157 2773,-157 2773,-157 2440.83,-157 2440.83,-157"/>
<polygon fill="black" stroke="black" points="2440.83,-153.5 2430.83,-157 2440.83,-160.5 2440.83,-153.5"/>
</g>
<!-- HomeComponent -->
<g id="node12" class="node">
<title>HomeComponent</title>
<polygon fill="#ffffb3" stroke="black" points="2696.55,-122 2581.45,-122 2581.45,-86 2696.55,-86 2696.55,-122"/>
<text text-anchor="middle" x="2639" y="-99.8" font-family="Times,serif" font-size="14.00">HomeComponent</text>
</g>
<!-- HomeComponent&#45;&gt;AppModule -->
<g id="edge12" class="edge">
<title>HomeComponent&#45;&gt;AppModule</title>
<path fill="none" stroke="black" d="M2639,-122.05C2639,-136.37 2639,-154 2639,-154 2639,-154 2440.84,-154 2440.84,-154"/>
<polygon fill="black" stroke="black" points="2440.84,-150.5 2430.84,-154 2440.84,-157.5 2440.84,-150.5"/>
</g>
<!-- MeusProdutosComponent -->
<g id="node13" class="node">
<title>MeusProdutosComponent</title>
<polygon fill="#ffffb3" stroke="black" points="2563.21,-122 2400.79,-122 2400.79,-86 2563.21,-86 2563.21,-122"/>
<text text-anchor="middle" x="2482" y="-99.8" font-family="Times,serif" font-size="14.00">MeusProdutosComponent</text>
</g>
<!-- MeusProdutosComponent&#45;&gt;AppModule -->
<g id="edge13" class="edge">
<title>MeusProdutosComponent&#45;&gt;AppModule</title>
<path fill="none" stroke="black" d="M2415.86,-122.11C2415.86,-122.11 2415.86,-140.99 2415.86,-140.99"/>
<polygon fill="black" stroke="black" points="2412.36,-140.99 2415.86,-150.99 2419.36,-140.99 2412.36,-140.99"/>
</g>
<!-- MinhasComprasComponent -->
<g id="node14" class="node">
<title>MinhasComprasComponent</title>
<polygon fill="#ffffb3" stroke="black" points="2382.87,-122 2209.13,-122 2209.13,-86 2382.87,-86 2382.87,-122"/>
<text text-anchor="middle" x="2296" y="-99.8" font-family="Times,serif" font-size="14.00">MinhasComprasComponent</text>
</g>
<!-- MinhasComprasComponent&#45;&gt;AppModule -->
<g id="edge14" class="edge">
<title>MinhasComprasComponent&#45;&gt;AppModule</title>
<path fill="none" stroke="black" d="M2365.05,-122.11C2365.05,-122.11 2365.05,-140.99 2365.05,-140.99"/>
<polygon fill="black" stroke="black" points="2361.55,-140.99 2365.05,-150.99 2368.55,-140.99 2361.55,-140.99"/>
</g>
<!-- NavbarComponent -->
<g id="node15" class="node">
<title>NavbarComponent</title>
<polygon fill="#ffffb3" stroke="black" points="2191.03,-122 2068.97,-122 2068.97,-86 2191.03,-86 2191.03,-122"/>
<text text-anchor="middle" x="2130" y="-99.8" font-family="Times,serif" font-size="14.00">NavbarComponent</text>
</g>
<!-- NavbarComponent&#45;&gt;AppModule -->
<g id="edge15" class="edge">
<title>NavbarComponent&#45;&gt;AppModule</title>
<path fill="none" stroke="black" d="M2130,-122.05C2130,-136.37 2130,-154 2130,-154 2130,-154 2337.1,-154 2337.1,-154"/>
<polygon fill="black" stroke="black" points="2337.1,-157.5 2347.1,-154 2337.1,-150.5 2337.1,-157.5"/>
</g>
<!-- ProdutoDeleteComponent -->
<g id="node16" class="node">
<title>ProdutoDeleteComponent</title>
<polygon fill="#ffffb3" stroke="black" points="2051.2,-122 1888.8,-122 1888.8,-86 2051.2,-86 2051.2,-122"/>
<text text-anchor="middle" x="1970" y="-99.8" font-family="Times,serif" font-size="14.00">ProdutoDeleteComponent</text>
</g>
<!-- ProdutoDeleteComponent&#45;&gt;AppModule -->
<g id="edge16" class="edge">
<title>ProdutoDeleteComponent&#45;&gt;AppModule</title>
<path fill="none" stroke="black" d="M1970,-122.24C1970,-137.57 1970,-157 1970,-157 1970,-157 2337.29,-157 2337.29,-157"/>
<polygon fill="black" stroke="black" points="2337.29,-160.5 2347.29,-157 2337.29,-153.5 2337.29,-160.5"/>
</g>
<!-- ProdutoEditComponent -->
<g id="node17" class="node">
<title>ProdutoEditComponent</title>
<polygon fill="#ffffb3" stroke="black" points="1870.5,-122 1721.5,-122 1721.5,-86 1870.5,-86 1870.5,-122"/>
<text text-anchor="middle" x="1796" y="-99.8" font-family="Times,serif" font-size="14.00">ProdutoEditComponent</text>
</g>
<!-- ProdutoEditComponent&#45;&gt;AppModule -->
<g id="edge17" class="edge">
<title>ProdutoEditComponent&#45;&gt;AppModule</title>
<path fill="none" stroke="black" d="M1796,-122.01C1796,-138.05 1796,-159 1796,-159 1796,-159 2337.3,-159 2337.3,-159"/>
<polygon fill="black" stroke="black" points="2337.3,-162.5 2347.3,-159 2337.3,-155.5 2337.3,-162.5"/>
</g>
<!-- ProdutosComponent -->
<g id="node18" class="node">
<title>ProdutosComponent</title>
<polygon fill="#ffffb3" stroke="black" points="1703.61,-122 1572.39,-122 1572.39,-86 1703.61,-86 1703.61,-122"/>
<text text-anchor="middle" x="1638" y="-99.8" font-family="Times,serif" font-size="14.00">ProdutosComponent</text>
</g>
<!-- ProdutosComponent&#45;&gt;AppModule -->
<g id="edge18" class="edge">
<title>ProdutosComponent&#45;&gt;AppModule</title>
<path fill="none" stroke="black" d="M1638,-122.03C1638,-139.06 1638,-162 1638,-162 1638,-162 2337.28,-162 2337.28,-162"/>
<polygon fill="black" stroke="black" points="2337.28,-165.5 2347.28,-162 2337.28,-158.5 2337.28,-165.5"/>
</g>
<!-- RodapeComponent -->
<g id="node19" class="node">
<title>RodapeComponent</title>
<polygon fill="#ffffb3" stroke="black" points="1554.1,-122 1429.9,-122 1429.9,-86 1554.1,-86 1554.1,-122"/>
<text text-anchor="middle" x="1492" y="-99.8" font-family="Times,serif" font-size="14.00">RodapeComponent</text>
</g>
<!-- RodapeComponent&#45;&gt;AppModule -->
<g id="edge19" class="edge">
<title>RodapeComponent&#45;&gt;AppModule</title>
<path fill="none" stroke="black" d="M1492,-122C1492,-139.68 1492,-164 1492,-164 1492,-164 2337.24,-164 2337.24,-164"/>
<polygon fill="black" stroke="black" points="2337.24,-167.5 2347.24,-164 2337.24,-160.5 2337.24,-167.5"/>
</g>
<!-- SobreComponent -->
<g id="node20" class="node">
<title>SobreComponent</title>
<polygon fill="#ffffb3" stroke="black" points="1411.99,-122 1298.01,-122 1298.01,-86 1411.99,-86 1411.99,-122"/>
<text text-anchor="middle" x="1355" y="-99.8" font-family="Times,serif" font-size="14.00">SobreComponent</text>
</g>
<!-- SobreComponent&#45;&gt;AppModule -->
<g id="edge20" class="edge">
<title>SobreComponent&#45;&gt;AppModule</title>
<path fill="none" stroke="black" d="M1355,-122.22C1355,-140.83 1355,-167 1355,-167 1355,-167 2337.19,-167 2337.19,-167"/>
<polygon fill="black" stroke="black" points="2337.19,-170.5 2347.19,-167 2337.19,-163.5 2337.19,-170.5"/>
</g>
<!-- TelaAtualizarComponent -->
<g id="node21" class="node">
<title>TelaAtualizarComponent</title>
<polygon fill="#ffffb3" stroke="black" points="1280.29,-122 1121.71,-122 1121.71,-86 1280.29,-86 1280.29,-122"/>
<text text-anchor="middle" x="1201" y="-99.8" font-family="Times,serif" font-size="14.00">TelaAtualizarComponent</text>
</g>
<!-- TelaAtualizarComponent&#45;&gt;AppModule -->
<g id="edge21" class="edge">
<title>TelaAtualizarComponent&#45;&gt;AppModule</title>
<path fill="none" stroke="black" d="M1201,-122.11C1201,-141.34 1201,-169 1201,-169 1201,-169 2337.07,-169 2337.07,-169"/>
<polygon fill="black" stroke="black" points="2337.07,-172.5 2347.07,-169 2337.07,-165.5 2337.07,-172.5"/>
</g>
<!-- TelaContaComponent -->
<g id="node22" class="node">
<title>TelaContaComponent</title>
<polygon fill="#ffffb3" stroke="black" points="1103.65,-122 964.35,-122 964.35,-86 1103.65,-86 1103.65,-122"/>
<text text-anchor="middle" x="1034" y="-99.8" font-family="Times,serif" font-size="14.00">TelaContaComponent</text>
</g>
<!-- TelaContaComponent&#45;&gt;AppModule -->
<g id="edge22" class="edge">
<title>TelaContaComponent&#45;&gt;AppModule</title>
<path fill="none" stroke="black" d="M1034,-122.22C1034,-142.37 1034,-172 1034,-172 1034,-172 2337.34,-172 2337.34,-172"/>
<polygon fill="black" stroke="black" points="2337.34,-175.5 2347.34,-172 2337.34,-168.5 2337.34,-175.5"/>
</g>
<!-- TelaProdutoComponent -->
<g id="node23" class="node">
<title>TelaProdutoComponent</title>
<polygon fill="#ffffb3" stroke="black" points="946.04,-122 795.96,-122 795.96,-86 946.04,-86 946.04,-122"/>
<text text-anchor="middle" x="871" y="-99.8" font-family="Times,serif" font-size="14.00">TelaProdutoComponent</text>
</g>
<!-- TelaProdutoComponent&#45;&gt;AppModule -->
<g id="edge23" class="edge">
<title>TelaProdutoComponent&#45;&gt;AppModule</title>
<path fill="none" stroke="black" d="M871,-122.28C871,-143.32 871,-175 871,-175 871,-175 2337.21,-175 2337.21,-175"/>
<polygon fill="black" stroke="black" points="2337.21,-178.5 2347.21,-175 2337.21,-171.5 2337.21,-178.5"/>
</g>
<!-- TelaVendedorComponent -->
<g id="node24" class="node">
<title>TelaVendedorComponent</title>
<polygon fill="#ffffb3" stroke="black" points="777.9,-122 616.1,-122 616.1,-86 777.9,-86 777.9,-122"/>
<text text-anchor="middle" x="697" y="-99.8" font-family="Times,serif" font-size="14.00">TelaVendedorComponent</text>
</g>
<!-- TelaVendedorComponent&#45;&gt;AppModule -->
<g id="edge24" class="edge">
<title>TelaVendedorComponent&#45;&gt;AppModule</title>
<path fill="none" stroke="black" d="M697,-122.04C697,-143.66 697,-177 697,-177 697,-177 2337.18,-177 2337.18,-177"/>
<polygon fill="black" stroke="black" points="2337.18,-180.5 2347.18,-177 2337.18,-173.5 2337.18,-180.5"/>
</g>
<!-- TrabalheConoscoComponent -->
<g id="node25" class="node">
<title>TrabalheConoscoComponent</title>
<polygon fill="#ffffb3" stroke="black" points="598.08,-122 417.92,-122 417.92,-86 598.08,-86 598.08,-122"/>
<text text-anchor="middle" x="508" y="-99.8" font-family="Times,serif" font-size="14.00">TrabalheConoscoComponent</text>
</g>
<!-- TrabalheConoscoComponent&#45;&gt;AppModule -->
<g id="edge25" class="edge">
<title>TrabalheConoscoComponent&#45;&gt;AppModule</title>
<path fill="none" stroke="black" d="M508,-122.01C508,-144.49 508,-180 508,-180 508,-180 2337.08,-180 2337.08,-180"/>
<polygon fill="black" stroke="black" points="2337.08,-183.5 2347.08,-180 2337.08,-176.5 2337.08,-183.5"/>
</g>
<!-- VendedorDadosComponent -->
<g id="node26" class="node">
<title>VendedorDadosComponent</title>
<polygon fill="#ffffb3" stroke="black" points="400.29,-122 227.71,-122 227.71,-86 400.29,-86 400.29,-122"/>
<text text-anchor="middle" x="314" y="-99.8" font-family="Times,serif" font-size="14.00">VendedorDadosComponent</text>
</g>
<!-- VendedorDadosComponent&#45;&gt;AppModule -->
<g id="edge26" class="edge">
<title>VendedorDadosComponent&#45;&gt;AppModule</title>
<path fill="none" stroke="black" d="M314,-122.09C314,-145.13 314,-182 314,-182 314,-182 2337.08,-182 2337.08,-182"/>
<polygon fill="black" stroke="black" points="2337.08,-185.5 2347.08,-182 2337.08,-178.5 2337.08,-185.5"/>
</g>
<!-- VendedorProdutosComponent -->
<g id="node27" class="node">
<title>VendedorProdutosComponent</title>
<polygon fill="#ffffb3" stroke="black" points="210.31,-122 23.69,-122 23.69,-86 210.31,-86 210.31,-122"/>
<text text-anchor="middle" x="117" y="-99.8" font-family="Times,serif" font-size="14.00">VendedorProdutosComponent</text>
</g>
<!-- VendedorProdutosComponent&#45;&gt;AppModule -->
<g id="edge27" class="edge">
<title>VendedorProdutosComponent&#45;&gt;AppModule</title>
<path fill="none" stroke="black" d="M117,-122.38C117,-146.28 117,-185 117,-185 117,-185 2337.13,-185 2337.13,-185"/>
<polygon fill="black" stroke="black" points="2337.13,-188.5 2347.13,-185 2337.13,-181.5 2337.13,-188.5"/>
</g>
<!-- AppComponent  -->
<g id="node30" class="node">
<title>AppComponent </title>
<polygon fill="#80b1d3" stroke="black" points="2443.44,-252 2334.56,-252 2334.56,-216 2443.44,-216 2443.44,-252"/>
<text text-anchor="middle" x="2389" y="-229.8" font-family="Times,serif" font-size="14.00">AppComponent </text>
</g>
<!-- AppModule&#45;&gt;AppComponent  -->
<g id="edge29" class="edge">
<title>AppModule&#45;&gt;AppComponent </title>
<path fill="none" stroke="black" stroke-dasharray="1,5" d="M2389,-187.11C2389,-187.11 2389,-205.99 2389,-205.99"/>
<polygon fill="black" stroke="black" points="2385.5,-205.99 2389,-215.99 2392.5,-205.99 2385.5,-205.99"/>
</g>
<!-- AppRoutingModule -->
<g id="node29" class="node">
<title>AppRoutingModule</title>
<polygon fill="#8dd3c7" stroke="black" points="4600.27,-122 4597.27,-126 4576.27,-126 4573.27,-122 4471.73,-122 4471.73,-86 4600.27,-86 4600.27,-122"/>
<text text-anchor="middle" x="4536" y="-99.8" font-family="Times,serif" font-size="14.00">AppRoutingModule</text>
</g>
<!-- AppRoutingModule&#45;&gt;AppModule -->
<g id="edge28" class="edge">
<title>AppRoutingModule&#45;&gt;AppModule</title>
<path fill="none" stroke="black" d="M4536,-122.38C4536,-146.28 4536,-185 4536,-185 4536,-185 2440.92,-185 2440.92,-185"/>
<polygon fill="black" stroke="black" points="2440.92,-181.5 2430.92,-185 2440.92,-188.5 2440.92,-181.5"/>
</g>
</g>
</svg>
